<svg width="48" height="48" viewBox="0 0 48 48" fill="none" xmlns="http://www.w3.org/2000/svg">
<path d="M13.9954 20.4939L14.8654 22.0139C15.4194 22.9839 15.6954 23.4679 15.6954 23.9999C15.6954 24.5319 15.4194 25.0159 14.8654 25.9839L13.9954 27.5059C11.5194 31.8399 10.2814 34.0059 11.2454 35.0819C12.2114 36.1559 14.4994 35.1559 19.0714 33.1559L31.6234 27.6639C35.2134 26.0939 37.0094 25.3079 37.0094 23.9999C37.0094 22.6919 35.2134 21.9059 31.6234 20.3359L19.0714 14.8439C14.4994 12.8439 12.2114 11.8439 11.2454 12.9179C10.2814 13.9919 11.5194 16.1579 13.9954 20.4939Z" stroke="#002669" stroke-width="4"/>
</svg>
