<svg width="64" height="65" viewBox="0 0 64 65" fill="none" xmlns="http://www.w3.org/2000/svg">
<rect y="0.971924" width="64" height="64" rx="32" fill="#002669"/>
<path d="M32 32.9719C29.8 32.9719 27.9167 32.1886 26.35 30.6219C24.7833 29.0553 24 27.1719 24 24.9719C24 22.7719 24.7833 20.8886 26.35 19.3219C27.9167 17.7553 29.8 16.9719 32 16.9719C34.2 16.9719 36.0833 17.7553 37.65 19.3219C39.2167 20.8886 40 22.7719 40 24.9719C40 27.1719 39.2167 29.0553 37.65 30.6219C36.0833 32.1886 34.2 32.9719 32 32.9719ZM16 44.9719V43.3719C16 42.2386 16.292 41.1973 16.876 40.2479C17.46 39.2986 18.2347 38.5733 19.2 38.0719C21.2667 37.0386 23.3667 36.2639 25.5 35.7479C27.6333 35.2319 29.8 34.9733 32 34.9719C34.2 34.9719 36.3667 35.2306 38.5 35.7479C40.6333 36.2653 42.7333 37.0399 44.8 38.0719C45.7667 38.5719 46.542 39.2973 47.126 40.2479C47.71 41.1986 48.0013 42.2399 48 43.3719V44.9719C48 46.0719 47.6087 47.0139 46.826 47.7979C46.0433 48.5819 45.1013 48.9733 44 48.9719H20C18.9 48.9719 17.9587 48.5806 17.176 47.7979C16.3933 47.0153 16.0013 46.0733 16 44.9719Z" fill="#F6F6F6"/>
</svg>
